<svg width="464" height="410" viewBox="0 0 464 410" fill="none" xmlns="http://www.w3.org/2000/svg">
<g clip-path="url(#clip0_4557_5467)">
<path d="M363.878 0H12.1217C5.97934 0 1 4.44719 1 9.93308V309.067C1 314.553 5.97934 319 12.1217 319H363.878C370.021 319 375 314.553 375 309.067V9.93308C375 4.44719 370.021 0 363.878 0Z" fill="#C4F49A" stroke="#8066FF" stroke-miterlimit="10"/>
<path d="M419.498 154.41H231.658C225.5 154.41 220.508 159.402 220.508 165.56V308.57C220.508 314.728 225.5 319.72 231.658 319.72H419.498C425.656 319.72 430.648 314.728 430.648 308.57V165.56C430.648 159.402 425.656 154.41 419.498 154.41Z" fill="url(#paint0_linear_4557_5467)" stroke="#8066FF" stroke-miterlimit="10"/>
<path d="M29.8079 409L178.192 409C183.057 409 187 404.138 187 398.141L187 258.859C187 252.862 183.057 248 178.192 248L29.8079 248C24.9434 248 21 252.862 21 258.859L21 398.141C21 404.138 24.9434 409 29.8079 409Z" fill="#D6C7FF" stroke="#8066FF" stroke-miterlimit="10"/>
<path d="M284.981 55.2695H89.9313C82.5306 55.2695 76.5312 61.2689 76.5312 68.6695V395.36C76.5312 402.76 82.5306 408.76 89.9313 408.76H284.981C292.382 408.76 298.381 402.76 298.381 395.36V68.6695C298.381 61.2689 292.382 55.2695 284.981 55.2695Z" fill="#FDC8FA" stroke="#8066FF" stroke-miterlimit="10"/>
<path d="M113.423 114.48C111.413 115.1 109.543 116.17 107.983 117.58C107.083 118.39 106.283 119.32 105.363 120.11C104.443 120.9 103.353 121.57 102.153 121.73C100.953 121.89 99.6128 121.46 98.9428 120.44C98.2128 119.32 98.4528 117.78 99.1728 116.66C99.8928 115.54 101.013 114.74 102.103 113.97C105.203 111.78 109.663 113.9 113.423 114.47V114.48Z" fill="#D6B49D" stroke="#8066FF" stroke-miterlimit="10"/>
<path d="M138.783 109.95L139.713 120.92H139.663L140.303 128.42L120.523 130.1L119.743 120.92C119.693 120.36 119.593 119.8 119.383 119.28C117.773 115.45 113.633 115.15 111.453 115.2C108.503 115.27 104.313 115.67 101.363 115.91L93.0625 116.61L89.4225 116.92C87.4825 117.08 85.6625 115.63 85.6025 113.69C85.5825 112.83 85.8725 112.04 86.3925 111.42C86.9425 110.77 87.7525 110.32 88.6725 110.24L105.473 108.81V108.78L91.5625 109.96C89.7525 110.07 88.1725 108.72 88.0125 106.9C87.9325 105.97 88.2425 105.11 88.7925 104.45C89.3425 103.8 90.1525 103.35 91.0725 103.27L104.903 102.1V102.07L95.1425 102.9C95.0025 102.91 94.8625 102.92 94.7225 102.91C93.0525 102.84 91.6525 101.55 91.5125 99.8402C91.4325 98.9202 91.7425 98.0502 92.2925 97.4002C92.8525 96.7402 93.6525 96.2902 94.5825 96.2102L119.973 94.0502C129.563 93.2402 137.993 100.35 138.803 109.93L138.783 109.95Z" fill="#D6B49D" stroke="#8066FF" stroke-miterlimit="10"/>
<path d="M90.8004 112.49C91.3304 112.44 91.8404 112.62 92.2204 112.94C92.6004 113.26 92.8604 113.73 92.9004 114.26L93.0604 116.16C93.0704 116.31 93.0604 116.45 93.0504 116.6L89.2804 116.92C89.2304 116.78 89.2104 116.64 89.1904 116.49L89.0304 114.59C88.9404 113.52 89.7304 112.58 90.8004 112.49Z" fill="#D6B49D" stroke="#8066FF" stroke-miterlimit="10"/>
<path d="M93.0192 105.36C93.5492 105.31 94.0592 105.49 94.4392 105.81C94.8192 106.13 95.0792 106.6 95.1192 107.13L95.2792 109.03C95.2992 109.25 95.2792 109.45 95.2292 109.65L91.5492 109.96C91.4792 109.77 91.4192 109.58 91.4092 109.36L91.2492 107.46C91.1592 106.39 91.9492 105.45 93.0192 105.36Z" fill="#D6B49D" stroke="#8066FF" stroke-miterlimit="10"/>
<path d="M96.1732 98.3003C96.7032 98.2503 97.2132 98.4303 97.6032 98.7503C97.9832 99.0703 98.2432 99.5403 98.2832 100.07L98.4432 101.97C98.4632 102.2 98.4432 102.42 98.3932 102.63L95.1432 102.91C95.0032 102.92 94.8632 102.93 94.7232 102.92C94.6432 102.73 94.5932 102.52 94.5732 102.3L94.4132 100.4C94.3232 99.3303 95.1132 98.3903 96.1832 98.3003H96.1732Z" fill="#D6B49D" stroke="#8066FF" stroke-miterlimit="10"/>
<path d="M91.5469 109.97L105.307 108.8" stroke="#8066FF" stroke-miterlimit="10"/>
<path d="M94.7188 102.92L104.849 102.06" stroke="#8066FF" stroke-miterlimit="10"/>
<path d="M217.909 213.48C193.909 213.95 167.049 206.9 148.289 191.82C127.349 175 114.039 149.09 110.969 122.41L148.139 118.72C150.249 137.04 156.399 154.95 170.779 166.5C185.159 178.05 204.699 183.83 223.039 181.94L226.229 212.97C223.459 213.25 220.679 213.42 217.909 213.48Z" fill="#E1F9C5" stroke="#8066FF" stroke-miterlimit="10"/>
<path d="M369.783 221.99C368.203 220.66 368.013 218.29 369.353 216.71L380.113 204.02L382.653 201.03C382.793 200.86 382.933 200.72 383.103 200.6C384.473 199.43 386.523 199.4 387.933 200.6C388.243 200.87 388.503 201.18 388.703 201.5C389.523 202.85 389.443 204.62 388.373 205.88L375.073 221.56C373.723 223.14 371.363 223.33 369.793 221.99H369.783Z" fill="#D6B49D" stroke="#8066FF" stroke-miterlimit="10"/>
<path d="M369 232.729L370.98 239.339L357.56 247.539L346.93 230.129L370.78 215.569C370.78 215.569 370.84 215.549 370.86 215.549C370.97 215.459 371.09 215.379 371.21 215.299L388.75 204.589C390.52 203.509 392.82 204.069 393.9 205.829C394.44 206.709 394.57 207.729 394.35 208.659C394.12 209.589 393.54 210.439 392.65 210.979L379.3 219.129C380.54 220.329 382.06 221.609 384.23 222.689C385.56 223.339 387.06 225.129 387.39 226.509L382.81 229.159C383.14 227.639 380.4 227.699 379.55 226.309C377.78 223.399 373.97 222.479 371.06 224.259C368.15 226.029 367.23 229.839 369.01 232.749L369 232.729Z" fill="#D6B49D" stroke="#8066FF" stroke-miterlimit="10"/>
<path d="M376.163 218.43C380.833 218.47 385.363 220.85 387.973 225.12C388.743 226.39 389.293 227.73 389.623 229.11C390.543 232.93 389.803 237 387.603 240.25C386.873 241.32 385.993 242.31 384.963 243.17C384.773 243.33 384.563 243.47 384.353 243.58C382.743 244.47 380.683 244.12 379.463 242.65C378.103 241 378.333 238.53 379.983 237.15C381.083 236.25 381.783 235.03 382.063 233.72C382.393 232.2 382.163 230.57 381.313 229.18C379.543 226.27 375.733 225.35 372.823 227.13C369.913 228.9 368.993 232.71 370.773 235.62C371.613 236.99 372.923 237.96 374.453 238.37C374.723 238.44 375.003 238.5 375.283 238.54C377.423 238.8 378.943 240.75 378.673 242.89C378.423 244.9 376.693 246.36 374.703 246.31C374.573 246.31 374.443 246.3 374.323 246.28C372.753 246.08 371.253 245.64 369.883 244.96C368.813 244.44 367.803 243.77 366.903 242.98C365.823 242.05 364.883 240.94 364.113 239.69C361.863 236.01 361.533 231.68 362.823 227.88" fill="#D6B49D"/>
<path d="M376.163 218.43C380.833 218.47 385.363 220.85 387.973 225.12C388.743 226.39 389.293 227.73 389.623 229.11C390.543 232.93 389.803 237 387.603 240.25C386.873 241.32 385.993 242.31 384.963 243.17C384.773 243.33 384.563 243.47 384.353 243.58C382.743 244.47 380.683 244.12 379.463 242.65C378.103 241 378.333 238.53 379.983 237.15C381.083 236.25 381.783 235.03 382.063 233.72C382.393 232.2 382.163 230.57 381.313 229.18C379.543 226.27 375.733 225.35 372.823 227.13C369.913 228.9 368.993 232.71 370.773 235.62C371.613 236.99 372.923 237.96 374.453 238.37C374.723 238.44 375.003 238.5 375.283 238.54C377.423 238.8 378.943 240.75 378.673 242.89C378.423 244.9 376.693 246.36 374.703 246.31C374.573 246.31 374.443 246.3 374.323 246.28C372.753 246.08 371.253 245.64 369.883 244.96C368.813 244.44 367.803 243.77 366.903 242.98C365.823 242.05 364.883 240.94 364.113 239.69C361.863 236.01 361.533 231.68 362.823 227.88" stroke="#8066FF" stroke-miterlimit="10"/>
<path d="M389.303 210.29C388.773 210.62 388.153 210.69 387.593 210.56C387.033 210.42 386.523 210.07 386.183 209.53L384.893 207.42C384.813 207.3 384.753 207.17 384.703 207.03L388.513 204.71C388.613 204.81 388.693 204.93 388.773 205.06L390.063 207.17C390.723 208.24 390.383 209.64 389.303 210.29Z" fill="#D6B49D" stroke="#8066FF" stroke-miterlimit="10"/>
<path d="M384.399 205.57C383.599 206.06 382.549 206.01 381.789 205.39L380.109 204.02L382.649 201.03C382.789 200.86 382.929 200.72 383.099 200.6L384.659 201.86C385.629 202.65 385.779 204.08 384.989 205.06C384.819 205.27 384.629 205.44 384.409 205.57H384.399Z" fill="#D6B49D" stroke="#8066FF" stroke-miterlimit="10"/>
<path d="M374.703 246.309C374.573 246.309 374.443 246.299 374.323 246.279C372.753 246.079 371.253 245.639 369.883 244.959L370.383 243.179C370.753 241.839 372.133 241.069 373.473 241.439C374.103 241.609 374.613 242.029 374.933 242.549C375.283 243.119 375.413 243.839 375.203 244.529L374.713 246.309H374.703Z" fill="#D6B49D" stroke="#8066FF" stroke-miterlimit="10"/>
<path d="M384.35 243.58L383.29 242.65C382.32 241.81 382.22 240.34 383.07 239.38C383.23 239.2 383.41 239.04 383.61 238.93C384.45 238.42 385.56 238.48 386.34 239.16L387.61 240.26C386.88 241.33 386 242.32 384.97 243.18C384.78 243.34 384.57 243.48 384.36 243.59L384.35 243.58Z" fill="#D6B49D" stroke="#8066FF" stroke-miterlimit="10"/>
<path d="M234.887 142.23C248.827 142.23 260.147 153.55 260.147 167.49V192.24H209.617V167.49C209.617 153.55 220.937 142.23 234.877 142.23H234.887Z" fill="#8066FF"/>
<path d="M210.123 162.38C209.053 167.14 209.233 171.81 207.103 176.2C205.233 180.05 202.273 183.24 199.713 186.66C197.153 190.08 194.883 194 194.773 198.28C198.343 197.8 201.793 198.78 205.393 198.88C208.993 198.98 212.743 198.71 215.883 196.95C217.453 196.07 218.803 194.86 220.053 193.58C222.653 190.92 224.903 187.85 226.233 184.37C228.163 179.33 228.033 173.52 225.863 168.58C223.693 163.64 219.523 159.6 214.503 157.61C214.253 157.51 213.983 157.41 213.713 157.43C213.433 157.45 213.163 157.59 212.923 157.75C211.293 158.8 210.633 160.13 210.133 162.38H210.123Z" fill="#8066FF"/>
<path d="M259.703 162.38C260.773 167.14 260.593 171.81 262.723 176.2C264.593 180.05 267.553 183.24 270.113 186.66C272.673 190.08 274.943 194 275.053 198.28C271.483 197.8 268.033 198.78 264.433 198.88C260.833 198.98 257.083 198.71 253.943 196.95C252.373 196.07 251.023 194.86 249.773 193.58C247.173 190.92 244.923 187.85 243.593 184.37C241.663 179.33 241.793 173.52 243.963 168.58C246.133 163.63 250.303 159.6 255.323 157.61C255.573 157.51 255.843 157.41 256.113 157.43C256.393 157.45 256.663 157.59 256.903 157.75C258.533 158.8 259.193 160.13 259.693 162.38H259.703Z" fill="#8066FF"/>
<path d="M119.311 233.45L92.2013 247.54C90.4813 248.43 88.4313 247.89 87.6313 246.34C87.1613 245.43 87.2213 244.36 87.7113 243.46C87.9213 243.07 88.2013 242.7 88.5613 242.41L84.4513 244.55C82.7313 245.44 80.6813 244.9 79.8813 243.35C79.4113 242.44 79.4713 241.37 79.9613 240.48C80.1613 240.1 80.4913 239.68 80.7913 239.45L78.2413 240.77C76.5213 241.66 74.4813 241.12 73.6813 239.58C73.2113 238.66 73.2713 237.6 73.7613 236.71C74.1013 236.08 74.6413 235.53 75.3513 235.17L78.1013 233.75C76.6313 234.22 75.0013 233.57 74.3213 232.25C73.8513 231.34 73.9113 230.27 74.4013 229.38C74.7413 228.75 75.2813 228.2 75.9913 227.84L98.2013 216.36L105.101 214.07L119.311 233.45Z" fill="#D6B49D" stroke="#8066FF" stroke-miterlimit="10"/>
<path d="M79.569 201.951L56.3352 211.528C54.3336 212.353 53.3797 214.644 54.2047 216.646L72.2713 260.478C73.0963 262.48 75.3877 263.434 77.3893 262.609L100.623 253.033C102.625 252.208 103.579 249.916 102.754 247.915L84.687 204.082C83.862 202.08 81.5706 201.126 79.569 201.951Z" fill="#8066FF"/>
<path d="M98.9804 224.01C96.3804 223.12 94.1103 221.59 92.3403 219.48C88.6303 218.69 84.9103 217.9 81.2003 217.11C80.0103 216.86 78.7903 216.59 77.7703 215.93C76.7403 215.27 75.9404 214.13 76.0304 212.92C76.1404 211.53 77.4104 210.44 78.7604 210.09C78.9704 210.04 79.1703 210 79.3803 209.97C80.5503 209.81 81.7504 210 82.9204 210.2C83.1304 210.23 83.3404 210.27 83.5603 210.31C90.8204 211.52 97.9604 212.9 105.19 214.26" fill="#D6B49D"/>
<path d="M98.9804 224.01C96.3804 223.12 94.1103 221.59 92.3403 219.48C88.6303 218.69 84.9103 217.9 81.2003 217.11C80.0103 216.86 78.7903 216.59 77.7703 215.93C76.7403 215.27 75.9404 214.13 76.0304 212.92C76.1404 211.53 77.4104 210.44 78.7604 210.09C78.9704 210.04 79.1703 210 79.3803 209.97C80.5503 209.81 81.7504 210 82.9204 210.2C83.1304 210.23 83.3403 210.27 83.5603 210.31C90.8204 211.52 97.9604 212.9 105.19 214.26" stroke="#8066FF" stroke-miterlimit="10"/>
<path d="M83.5699 210.31L83.1999 212.41C82.9999 213.55 81.9099 214.3 80.7799 214.1C80.5599 214.06 80.3399 213.98 80.1499 213.88C79.3799 213.46 78.9199 212.59 79.0899 211.68L79.3899 209.98C80.5599 209.82 81.7599 210.01 82.9299 210.21C83.1399 210.24 83.3499 210.28 83.5699 210.32V210.31Z" fill="#D6B49D" stroke="#8066FF" stroke-miterlimit="10"/>
<path d="M214.559 171.07H218.009C220.55 171.07 222.609 169.011 222.609 166.47C222.609 163.93 220.55 161.87 218.009 161.87H214.559C212.019 161.87 209.959 163.93 209.959 166.47C209.959 169.011 212.019 171.07 214.559 171.07Z" fill="#D6B49D" stroke="#8066FF" stroke-miterlimit="10"/>
<path d="M275.231 181.34C275.551 193.13 281.321 205.39 290.651 215.15C295.211 219.96 300.651 224.16 306.711 227.39C318.681 233.78 332.951 232.61 349.121 223.91L364.381 252.84C341.691 265.93 322.951 264.67 303.851 258.47C300.021 257.27 296.281 255.7 292.631 253.75C280.291 247.16 269.781 237.96 261.841 227.3C250.891 212.65 244.771 195.23 245.341 178.03" fill="#E1F9C5"/>
<path d="M275.231 181.34C275.551 193.13 281.321 205.39 290.651 215.15C295.211 219.96 300.651 224.16 306.711 227.39C318.681 233.78 332.951 232.61 349.121 223.91L364.381 252.84C341.691 265.93 322.951 264.67 303.851 258.47C300.021 257.27 296.281 255.7 292.631 253.75C280.291 247.16 269.781 237.96 261.841 227.3C250.891 212.65 244.771 195.23 245.341 178.03" stroke="#8066FF" stroke-miterlimit="10"/>
<path d="M217.024 164.88C215.594 164.7 214.104 164.99 212.844 165.71" stroke="#8066FF" stroke-miterlimit="10"/>
<path d="M367.748 181.7L384.908 156.42C385.988 154.81 385.698 152.72 384.248 151.74C383.398 151.17 382.338 151.11 381.378 151.49C380.968 151.65 380.568 151.88 380.238 152.21L382.848 148.38C383.938 146.78 383.638 144.68 382.188 143.7C381.338 143.13 380.278 143.07 379.328 143.44C378.928 143.6 378.468 143.87 378.208 144.14L379.808 141.76C380.898 140.16 380.598 138.06 379.158 137.09C378.308 136.51 377.238 136.45 376.298 136.83C375.638 137.09 375.028 137.57 374.578 138.23L372.848 140.79C373.488 139.38 373.028 137.69 371.798 136.86C370.948 136.29 369.888 136.23 368.938 136.6C368.278 136.86 367.668 137.34 367.218 138L353.228 158.72L350.148 165.31L367.738 181.68L367.748 181.7Z" fill="#D6B49D" stroke="#8066FF" stroke-miterlimit="10"/>
<path d="M380.586 159.869C399.954 159.869 415.656 144.168 415.656 124.799C415.656 105.431 399.954 89.7295 380.586 89.7295C361.217 89.7295 345.516 105.431 345.516 124.799C345.516 144.168 361.217 159.869 380.586 159.869Z" fill="white" stroke="#8066FF" stroke-miterlimit="10"/>
<path d="M389.732 125.17C389.732 130.3 385.612 134.41 380.472 134.41C375.352 134.41 371.242 130.27 371.242 125.14C371.242 120.02 375.392 115.91 380.522 115.93C385.612 115.94 389.722 120.07 389.722 125.17H389.732Z" fill="#C4F49A" stroke="#8066FF" stroke-miterlimit="10"/>
<path d="M403.101 125.16C403.101 121.19 403.101 117.22 403.101 113.25C403.101 112.55 403.081 111.85 402.981 111.15C402.351 106.54 398.001 102.6 393.351 102.57C384.871 102.53 376.391 102.55 367.911 102.55C367.421 102.55 366.941 102.6 366.461 102.67C361.841 103.29 357.911 107.65 357.881 112.29C357.841 120.79 357.871 129.28 357.861 137.78C357.861 138.25 357.911 138.71 357.981 139.17C358.601 143.79 362.961 147.73 367.601 147.75C376.081 147.79 384.561 147.76 393.041 147.77C393.531 147.77 394.001 147.72 394.491 147.65C399.111 147.03 403.021 142.68 403.071 138.03C403.111 133.74 403.071 129.44 403.071 125.15H403.081L403.101 125.16ZM380.461 139.44C372.591 139.44 366.211 133.04 366.221 125.16C366.221 117.29 372.621 110.91 380.491 110.91C388.361 110.91 394.751 117.29 394.761 125.17C394.761 133.07 388.371 139.46 380.461 139.45V139.44ZM395.291 114.01C393.271 114.01 391.661 112.39 391.661 110.38C391.661 108.39 393.301 106.74 395.291 106.73C397.281 106.71 398.971 108.41 398.951 110.41C398.931 112.42 397.311 114.01 395.291 114.01Z" fill="#C4F49A" stroke="#8066FF" stroke-miterlimit="10"/>
<path d="M380.534 84.7598C358.204 84.7598 340.094 102.86 340.094 125.2C340.094 147.54 358.194 165.64 380.534 165.64C402.874 165.64 420.974 147.54 420.974 125.2C420.974 102.86 402.874 84.7598 380.534 84.7598ZM408.124 138.01C408.124 139.53 407.814 141.01 407.324 142.44C405.204 148.7 399.224 152.88 392.634 152.82C384.534 152.75 376.434 152.8 368.334 152.8C367.614 152.8 366.904 152.8 366.184 152.69C360.774 151.85 356.824 149 354.344 144.11C353.554 142.55 353.164 140.88 352.894 139.17V111.14C352.944 110.86 353.004 110.58 353.054 110.3C353.994 105.17 356.814 101.43 361.444 99.0498C363.024 98.2398 364.734 97.8298 366.474 97.5598H394.504C396.304 97.8398 398.064 98.2598 399.684 99.1298C404.934 101.95 407.964 106.33 408.084 112.3C408.254 120.86 408.134 129.43 408.124 138V138.01Z" fill="#C4F49A" stroke="#8066FF" stroke-miterlimit="10"/>
<path d="M360.746 160.42C360.166 157.73 358.906 155.3 357.016 153.3C356.666 149.52 356.306 145.74 355.956 141.96C355.846 140.75 355.726 139.51 355.186 138.41C354.656 137.32 353.616 136.38 352.396 136.34C350.996 136.29 349.776 137.42 349.266 138.73C349.196 138.93 349.126 139.13 349.076 139.33C348.786 140.47 348.826 141.69 348.886 142.88C348.886 143.1 348.906 143.31 348.916 143.53C349.266 150.88 349.816 158.13 350.316 165.47" fill="#D6B49D"/>
<path d="M360.746 160.42C360.166 157.73 358.906 155.3 357.016 153.3C356.666 149.52 356.306 145.74 355.956 141.96C355.846 140.75 355.726 139.51 355.186 138.41C354.656 137.32 353.616 136.38 352.396 136.34C350.996 136.29 349.776 137.42 349.266 138.73C349.196 138.93 349.126 139.13 349.076 139.33C348.786 140.47 348.826 141.69 348.886 142.88C348.886 143.1 348.906 143.31 348.916 143.53C349.266 150.88 349.816 158.13 350.316 165.47" stroke="#8066FF" stroke-miterlimit="10"/>
<path d="M348.93 143.521L351.06 143.401C352.21 143.331 353.09 142.341 353.02 141.191C353.01 140.961 352.96 140.741 352.88 140.541C352.56 139.731 351.74 139.171 350.82 139.231L349.1 139.331C348.81 140.471 348.85 141.691 348.91 142.881C348.91 143.101 348.93 143.311 348.94 143.531L348.93 143.521Z" fill="#D6B49D" stroke="#8066FF" stroke-miterlimit="10"/>
<path d="M373.23 181.33C372.11 182.99 371 184.65 369.9 186.32C359.32 202.3 344.09 220.9 313.64 219.4C304.51 218.94 295.69 216.66 287.93 214.35C284.03 213.19 280.35 212.1 277.03 211.43C273.59 210.73 270.14 210.11 266.71 209.58L259.22 236.96H210.63L204.06 212.89C165.96 221.06 133.7 236.29 115.12 242.06L101.68 208.95C131.61 198.17 151.5 191.92 173.77 186.44C201.86 179.53 226.05 176.56 251.06 178.37C251.09 178.37 251.12 178.37 251.15 178.37C261.55 179.13 272.21 180.6 282.84 182.76C287.44 183.7 291.92 185.03 296.26 186.32C302.78 188.26 308.94 190.09 314.04 190.16C327.71 190.35 333.17 183.02 343.24 167.79C344.42 166.02 345.6 164.23 346.81 162.47L373.24 181.33H373.23Z" fill="#E1F9C5" stroke="#8066FF" stroke-miterlimit="10"/>
<path d="M255.191 161.88H251.741C249.2 161.88 247.141 163.939 247.141 166.48C247.141 169.02 249.2 171.08 251.741 171.08H255.191C257.731 171.08 259.791 169.02 259.791 166.48C259.791 163.939 257.731 161.88 255.191 161.88Z" fill="#D6B49D" stroke="#8066FF" stroke-miterlimit="10"/>
<path d="M234.249 148.86C234.249 148.86 234.219 148.75 234.219 148.7C234.239 148.7 234.249 148.7 234.269 148.7C234.269 148.75 234.269 148.81 234.249 148.86Z" fill="#D6B49D" stroke="#8066FF" stroke-miterlimit="10"/>
<path d="M252.88 167.04C252.88 177.17 244.67 185.39 234.53 185.39C224.39 185.39 216.18 177.17 216.18 167.04C216.18 165.38 216.4 163.77 216.81 162.25C219.1 161.66 220.71 159.32 223 158.51C224 158.17 225.08 158.13 226.13 158.03C227.93 157.86 229.75 157.49 231.33 156.6C232.6 155.88 233.69 154.76 234.23 153.42C234.79 154.76 235.88 155.88 237.14 156.6C238.71 157.5 240.53 157.87 242.34 158.03C243.39 158.13 244.46 158.17 245.47 158.51C247.93 159.38 249.6 162.01 252.18 162.36C252.2 162.32 252.21 162.28 252.23 162.24C252.65 163.77 252.87 165.37 252.87 167.04H252.88Z" fill="#D6B49D" stroke="#8066FF" stroke-miterlimit="10"/>
<path d="M245.963 166.76H236.203C236.203 164.27 238.073 162.21 240.493 161.92C240.693 161.89 240.883 161.88 241.083 161.88C243.773 161.88 245.963 164.06 245.963 166.76Z" fill="white"/>
<path d="M245.963 166.76H236.203C236.203 164.27 238.073 162.21 240.493 161.92C240.693 161.89 240.883 161.88 241.083 161.88C243.773 161.88 245.963 164.06 245.963 166.76Z" stroke="#8066FF" stroke-miterlimit="10"/>
<path d="M241.981 164.84C241.981 165.55 241.781 166.2 241.431 166.76H236.211C236.211 164.27 238.081 162.21 240.501 161.92C241.401 162.57 241.991 163.64 241.991 164.84H241.981Z" fill="#8066FF"/>
<path d="M231.768 167H222.008C222.008 164.51 223.878 162.45 226.298 162.16C226.498 162.13 226.688 162.12 226.888 162.12C229.578 162.12 231.768 164.3 231.768 167Z" fill="white"/>
<path d="M231.768 167H222.008C222.008 164.51 223.878 162.45 226.298 162.16C226.498 162.13 226.688 162.12 226.888 162.12C229.578 162.12 231.768 164.3 231.768 167Z" stroke="#8066FF" stroke-miterlimit="10"/>
<path d="M227.786 165.08C227.786 165.79 227.586 166.44 227.236 167H222.016C222.016 164.51 223.886 162.45 226.306 162.16C227.206 162.81 227.796 163.88 227.796 165.08H227.786Z" fill="#8066FF"/>
<path d="M234.081 173.55H230.041C228.891 173.55 227.961 172.62 227.961 171.47C227.961 170.32 228.891 169.39 230.041 169.39H234.081" stroke="#8066FF" stroke-miterlimit="10"/>
<path d="M229.477 178.64C236.227 179.91 241.027 177.35 242.017 171.7" stroke="#8066FF" stroke-miterlimit="10"/>
<path d="M252.742 164.88C254.172 164.7 255.662 164.99 256.922 165.71" stroke="#8066FF" stroke-miterlimit="10"/>
<path d="M252.232 162.23C252.232 162.23 252.202 162.32 252.182 162.36C249.612 162.01 247.933 159.38 245.473 158.51C244.473 158.17 243.392 158.13 242.342 158.03C240.542 157.86 238.713 157.49 237.143 156.6C235.873 155.88 234.782 154.76 234.232 153.42C233.682 154.76 232.593 155.88 231.333 156.6C229.753 157.5 227.943 157.87 226.133 158.03C225.083 158.13 224.013 158.17 223.003 158.51C220.713 159.32 219.102 161.66 216.812 162.25C218.892 154.54 225.883 148.84 234.213 148.7C234.213 148.75 234.213 148.81 234.243 148.86C234.243 148.81 234.262 148.75 234.262 148.7C234.352 148.7 234.443 148.7 234.523 148.7C242.993 148.7 250.123 154.44 252.223 162.24L252.232 162.23Z" fill="#8066FF"/>
<path d="M431.499 332.43V332.49H446.479C452.409 332.49 457.579 337.33 457.589 343.26C457.589 346.25 456.379 348.96 454.429 350.91C452.479 352.87 449.779 354.07 446.799 354.07H431.509V354.12H442.599C448.599 354.12 453.689 358.87 453.719 364.87C453.739 367.87 452.519 370.58 450.559 372.55C448.609 374.5 445.919 375.71 442.939 375.71H439.289C439.039 375.69 438.779 375.68 438.509 375.68L395.059 375.71H439.279C444.879 376.1 449.299 380.77 449.299 386.47C449.299 389.45 448.089 392.15 446.139 394.1C444.179 396.06 441.489 397.26 438.509 397.26H347.039V310.94C353.699 310.94 360.019 308.91 365.289 305.32C370.549 301.73 374.759 296.6 377.199 290.4L383.069 275.5L387.149 265.14C387.789 263.52 388.719 262.11 389.849 260.93C393.369 257.28 398.859 255.9 403.869 257.87C408.939 259.87 412.039 264.73 412.039 269.87C412.039 271.44 411.759 273.04 411.139 274.59L396.849 310.86H451.549C457.539 310.86 462.629 315.61 462.649 321.6C462.669 324.59 461.449 327.31 459.489 329.27C457.539 331.23 454.849 332.43 451.869 332.43H431.519H431.499Z" fill="#D6B49D" stroke="#8066FF" stroke-miterlimit="10"/>
<path d="M440.631 354.15H395.141" stroke="#8066FF" stroke-miterlimit="10"/>
<path d="M440.631 332.4H395.141" stroke="#8066FF" stroke-miterlimit="10"/>
<path d="M400.472 310.83H383.352" stroke="#8066FF" stroke-miterlimit="10"/>
<path d="M401.242 273.97C400.002 277.14 396.973 279.08 393.763 279.08C392.793 279.08 391.813 278.9 390.853 278.53L383.062 275.49L387.143 265.13C387.783 263.51 388.712 262.1 389.842 260.92L396.693 263.59C400.813 265.2 402.852 269.85 401.242 273.98V273.97Z" fill="#D6B49D" stroke="#8066FF" stroke-miterlimit="10"/>
<path d="M343.637 299.81H240.267C237.66 299.81 235.547 301.923 235.547 304.53V404.14C235.547 406.746 237.66 408.86 240.267 408.86H343.637C346.244 408.86 348.357 406.746 348.357 404.14V304.53C348.357 301.923 346.244 299.81 343.637 299.81Z" fill="#C4F49A" stroke="#8066FF" stroke-miterlimit="10"/>
<path d="M294.843 401.95C293.533 405.85 289.913 408.91 285.193 408.91H234.203V383.18C234.843 383.18 268.543 383.11 268.543 383.11L288.103 388.98C289.253 389.33 290.333 389.87 291.283 390.59C292.233 391.3 293.053 392.18 293.713 393.19C295.543 396 295.773 399.19 294.833 401.95H294.843Z" fill="white" stroke="#8066FF" stroke-miterlimit="10"/>
<path d="M294.843 401.95C293.533 405.85 289.913 408.91 285.193 408.91H234.203V401.95H294.843Z" fill="#FDC8FA" stroke="#8066FF" stroke-miterlimit="10"/>
<path d="M288.443 383.8L233.633 383.38L234.763 235.91L259.323 236.1C268.063 247.97 264.653 261.15 266.613 273.94C267.743 281.31 271.603 287.82 274.783 294.44C283.073 311.69 276.413 328.8 278.653 346.8C280.203 359.23 288.763 367.24 288.443 383.8Z" fill="#D6C7FF" stroke="#8066FF" stroke-miterlimit="10"/>
<path d="M174.133 401.95C175.443 405.85 179.063 408.91 183.783 408.91H234.773V383.18C234.133 383.18 200.433 383.11 200.433 383.11L180.873 388.98C179.723 389.33 178.643 389.87 177.693 390.59C176.743 391.3 175.923 392.18 175.263 393.19C173.433 396 173.203 399.19 174.143 401.95H174.133Z" fill="white" stroke="#8066FF" stroke-miterlimit="10"/>
<path d="M174.133 401.95C175.443 405.85 179.063 408.91 183.783 408.91H234.773V401.95H174.133Z" fill="#FDC8FA" stroke="#8066FF" stroke-miterlimit="10"/>
<path d="M179.956 383.38H234.766V235.91H210.206C201.376 247.71 204.686 260.91 202.626 273.69C201.446 281.05 197.536 287.53 194.306 294.13C185.886 311.31 192.406 328.47 190.026 346.46C188.386 358.88 179.766 366.82 179.956 383.38Z" fill="#D6C7FF" stroke="#8066FF" stroke-miterlimit="10"/>
<path d="M279.658 66.7103L273.328 106.63C272.998 108.7 271.048 110.12 268.978 109.79L248.058 106.47C246.818 106.27 245.568 106.7 244.708 107.61L231.958 121.03C230.768 122.29 228.678 121.96 227.938 120.39L219.968 103.68C219.428 102.55 218.368 101.76 217.128 101.56L196.208 98.2403C194.138 97.9103 192.718 95.9603 193.048 93.8903L199.378 53.9703C199.708 51.9003 201.658 50.4803 203.728 50.8103L276.488 62.3403C278.558 62.6703 279.978 64.6203 279.648 66.6903L279.658 66.7103Z" fill="#D0C8FA" stroke="#8066FF" stroke-miterlimit="10"/>
<path d="M251.688 84.1804L237.218 93.4804L235.108 94.8304C234.558 95.1804 233.828 95.0704 233.418 94.5604L231.528 92.2504L220.628 78.9204C218.168 75.9004 217.938 71.6204 220.088 68.3604C222.128 65.2604 225.658 63.9204 228.978 64.4404C230.978 64.7604 232.878 65.7504 234.338 67.4404L237.208 70.8004C237.618 71.2804 238.318 71.3904 238.858 71.0604L242.208 69.0204C244.118 67.8504 246.238 67.5104 248.238 67.8204C251.538 68.3404 254.488 70.7104 255.468 74.2804C256.498 78.0404 254.968 82.0504 251.688 84.1604V84.1804Z" fill="#8066FF"/>
<path d="M143.009 91.1201H74.7188V96.4901H142.999C144.459 96.4901 145.629 95.3101 145.629 93.8601V93.7601C145.629 92.3001 144.449 91.1301 142.999 91.1301L143.009 91.1201Z" fill="#C4F49A" stroke="#8066FF" stroke-miterlimit="10"/>
<path d="M152.609 41.87L145.919 89.2C145.759 90.31 144.809 91.14 143.689 91.14H74.7188L74.7687 90.82L75.7087 84.18L76.4587 78.87L77.3988 72.23L81.7387 41.52C81.9187 40.24 83.0088 39.29 84.2988 39.29H150.369C151.739 39.29 152.799 40.5 152.599 41.86L152.609 41.87Z" fill="#C4F49A" stroke="#8066FF" stroke-miterlimit="10"/>
<path d="M74.6094 91.1204H53.9894C52.5294 91.1204 51.3594 92.3004 51.3594 93.7504V93.8503C51.3594 95.3103 52.5394 96.4804 53.9894 96.4804H74.6094V91.1104V91.1204Z" fill="#C4F49A" stroke="#8066FF" stroke-miterlimit="10"/>
<path d="M128.488 39.3L127.208 47.69C123.198 73.96 111.238 84.19 84.5478 84.18H75.6978L74.7578 90.81H83.5278C113.838 90.81 129.388 77.52 133.948 47.68L135.228 39.29H128.488V39.3ZM116.348 39.3L115.068 47.69C113.518 57.82 111.048 63.87 107.048 67.29C103.048 70.71 96.6678 72.24 86.3778 72.24H77.3978L76.4578 78.87H85.3678C97.7578 78.87 105.458 76.81 111.108 71.98C116.758 67.15 119.958 59.88 121.828 47.68L123.108 39.29H116.368L116.348 39.3Z" fill="#8066FF"/>
<path d="M83.6622 39.2998V39.3798C82.6622 39.6398 81.8822 40.4698 81.7322 41.5198L77.3922 72.2298L76.4522 78.8698L75.7022 84.1798L75.2022 87.6898L74.6022 91.1398H69.2422L76.2522 41.5198C76.4322 40.2398 77.5222 39.2998 78.8122 39.2998H83.6522H83.6622Z" fill="#C4F49A" stroke="#8066FF" stroke-miterlimit="10"/>
<path d="M311.483 18.3263L317.913 59.7463C318.243 61.8963 316.773 63.9163 314.623 64.2463L292.923 67.6163C291.643 67.8163 290.543 68.6363 289.973 69.8063L281.653 87.1063C280.873 88.7263 278.713 89.0663 277.473 87.7563L264.303 73.7963C263.413 72.8563 262.113 72.4063 260.833 72.6063L239.133 75.9763C236.983 76.3063 234.963 74.8363 234.633 72.6863L228.203 31.2663C227.873 29.1163 229.343 27.0963 231.493 26.7663L306.983 15.0463C309.133 14.7163 311.153 16.1863 311.483 18.3363V18.3263Z" fill="#D0C8FA" stroke="#8066FF" stroke-miterlimit="10"/>
<path d="M289.421 44.4461L278.091 58.2161L276.441 60.2261C276.011 60.7461 275.261 60.8661 274.691 60.4961L272.091 58.8161L257.101 49.1161C253.711 46.9161 252.131 42.7661 253.211 38.8661C254.241 35.1661 257.301 32.7061 260.741 32.1761C262.811 31.8561 265.011 32.2261 266.991 33.4361L270.891 35.8361C271.451 36.1761 272.171 36.0661 272.601 35.5761L275.261 32.4961C276.781 30.7361 278.761 29.7261 280.831 29.3961C284.261 28.8661 287.921 30.2561 290.021 33.4761C292.241 36.8661 292.001 41.3061 289.421 44.4361V44.4461Z" fill="#8066FF"/>
<path d="M170.002 285.67L160.932 276.6C160.152 275.82 158.892 275.82 158.112 276.6L144.603 290.11C143.823 290.89 142.562 290.89 141.782 290.11L137.272 285.6C136.493 284.82 136.493 283.56 137.272 282.78L150.782 269.27C151.562 268.49 151.562 267.23 150.782 266.45L141.702 257.37C140.642 256.31 141.082 254.52 142.502 254.06L184.012 240.85C185.552 240.36 187.002 241.81 186.512 243.35L173.302 284.86C172.852 286.28 171.053 286.72 169.993 285.66L170.002 285.67Z" fill="#E1F9C5" stroke="#8066FF" stroke-miterlimit="10"/>
<path d="M83.6534 373.829C107.335 373.829 126.533 354.631 126.533 330.949C126.533 307.267 107.335 288.069 83.6534 288.069C59.9715 288.069 40.7734 307.267 40.7734 330.949C40.7734 354.631 59.9715 373.829 83.6534 373.829Z" fill="white" stroke="#8066FF" stroke-miterlimit="10"/>
<path d="M77.8599 282.85H85.7099C87.1499 283.06 88.5999 283.19 90.0199 283.5C108.4 287.47 120.36 298.46 125.94 316.4C126.79 319.13 127.14 321.97 127.48 324.8V332.3C127.44 332.53 127.39 332.77 127.37 333C126.69 340.02 124.65 346.63 120.78 352.51C110.18 368.62 95.1999 375.9 75.9799 373.93C66.2399 372.93 57.7099 368.84 50.6499 362.08C38.6799 350.63 33.7299 336.52 36.8499 320.26C40.3799 301.87 51.6999 290.01 69.5499 284.41C72.2499 283.56 75.0599 283.22 77.8599 282.85ZM86.8999 346.68C86.8999 342.01 86.8999 337.34 86.8999 332.67C86.8999 331.38 86.9199 331.36 88.1799 331.36C91.2099 331.36 94.2499 331.36 97.2799 331.36C98.2132 331.36 98.6833 330.906 98.6899 330C98.6899 327 98.6899 323.99 98.6899 320.99C98.6899 319.69 98.6899 319.68 97.4099 319.68C94.2599 319.68 91.1099 319.68 87.9499 319.68C87.3799 319.68 86.8799 319.66 86.8899 318.86C86.9199 316.15 86.8399 313.44 86.9299 310.74C87.0299 308.03 88.4799 306.56 91.1499 306.16C91.8299 306.06 92.5099 306.01 93.1899 306.01C94.8599 306.01 96.5199 306 98.1899 306.01C98.7799 306.01 99.0799 305.8 99.0699 305.18C99.0699 302.09 99.0699 298.99 99.0699 295.9C99.0699 295.3 98.8099 295.04 98.2099 295.06C94.8499 295.14 91.4899 294.91 88.1399 295.2C80.3499 295.86 75.2499 301.19 74.8499 309.02C74.6799 312.2 74.7499 315.38 74.7499 318.56C74.7499 319.41 74.4799 319.71 73.6199 319.69C70.9399 319.65 68.2699 319.69 65.5899 319.66C64.7799 319.65 64.4799 319.92 64.4899 320.74C64.5199 323.92 64.5199 327.1 64.4899 330.29C64.4899 331.11 64.7799 331.38 65.5899 331.37C68.1499 331.34 70.7099 331.36 73.2599 331.36C74.2399 331.36 74.7299 331.853 74.7299 332.84C74.7299 342.12 74.7299 351.4 74.7299 360.68C74.7299 361.586 75.1966 362.043 76.1299 362.05C79.3099 362.05 82.4899 362.05 85.6799 362.05C86.8999 362.05 86.9099 362.05 86.9099 360.79C86.9099 356.09 86.9099 351.39 86.9099 346.69L86.8999 346.68Z" fill="url(#paint1_linear_4557_5467)" stroke="#8066FF" stroke-miterlimit="10"/>
</g>
<defs>
<linearGradient id="paint0_linear_4557_5467" x1="303.678" y1="282.23" x2="395.378" y2="93.1602" gradientUnits="userSpaceOnUse">
<stop stop-color="#FDC8FA"/>
<stop offset="0.19" stop-color="#EFD5E1"/>
<stop offset="0.54" stop-color="#D8ECBA"/>
<stop offset="0.82" stop-color="#CAF9A1"/>
<stop offset="0.99" stop-color="#C5FF99"/>
</linearGradient>
<linearGradient id="paint1_linear_4557_5467" x1="60.0199" y1="351.34" x2="122.96" y2="284.86" gradientUnits="userSpaceOnUse">
<stop stop-color="#FDC8FA"/>
<stop offset="0.19" stop-color="#EFD5E1"/>
<stop offset="0.54" stop-color="#D8ECBA"/>
<stop offset="0.82" stop-color="#CAF9A1"/>
<stop offset="0.99" stop-color="#C5FF99"/>
</linearGradient>
<clipPath id="clip0_4557_5467">
<rect width="463.14" height="409.41" fill="white"/>
</clipPath>
</defs>
</svg>
